FOR ENGLISH, PLEASE SCROLL DOWN!

~~~~~~~~~~~~~~~~~~~~~~~~~~~~~~~~~~~~~~~~~~~~~~~~~~~~~~~~~
VERHAALLIJN:
¯¯¯¯¯¯¯¯¯¯¯¯
Vanaf haar jeugd wist Melinda Gordon(Jennifer Love Hewitt) dat ze doden kon zien en met ze kan praten. Aardgebonden geesten die nog niet zijn overgegaan. Deze geesten vragen de hulp van Melinda om boodschappen door te geven omdat ze door hun plotselinge dood niet voldoende afscheid hebben kunnen nemen. Geesten vragen op de voor Melinda slechte tijdstippen haar hulp. Zeker nu ze verhuisd en getrouwd is met Jim Clancy(David Conrad). Ook heeft ze een antiekwinkel waarmee ze druk is. Andrea Moreno (Aisha Tyler), Melinda's zakenpartner in de antiek winkel en vriendin, is erg gefascineerd door Melinda's gave. Hoewel Melinda haar gave af en toe kan vervloeken helpt ze altijd diegene die om hulp vragen.

~~~~~~~~~~~~~~~~~~~~~~~~~~~~~~~~~~~~~~~~~~~~~~~~~~~~~~~~~
- Titel: Ghost Whisperer S3D1 (retail)(multi audio+multisub) RHoek 2Lions
- Bron: Retail DVD9
- Formaat: DVD5 (omgezet met dvdfab)
- Geluid: 5.1
- Taal: Engels, Duits & Italiaans
- Ondertitelingen: Engels, Engels voor doven & slechthorenden, Duits, Italiaans & Nederlands.
- Menu: Ja
- Extra's: Nee
- Cover: Nee
- Label: Nee 
- Genre : Drama | Fantasy

Heel veel buigingen voor het mogelijk maken van deze disk gaan naar TheNZBBrains & ViSioNz. TOP!

IMDb: http://www.imdb.com/title/tt0460644/

~~~~~~~~~~~~~~~~~~~~~~~~~~~~~~~~~~~~~~~~~~~~~~~~~~~~~~~~~
STORY LINE:
¯¯¯¯¯¯¯¯¯¯¯
A newlywed with the ability to communicate with the earthbound spirits of the recently deceased overcomes skepticism and doubt to help send their important messages to the living and allow the dead to pass on to the other side. 

~~~~~~~~~~~~~~~~~~~~~~~~~~~~~~~~~~~~~~~~~~~~~~~~~~~~~~~~~
- Title: Ghost Whisperer S3D1 (retail)(multi audio+multisub) RHoek 2Lions
- Source: Retail DVD9
- Format: DVD5 (converted with dvdfab 8)
- Audio: 5.1
- Language: English, German & Italian
- Subtitles: English, English for the hearing impared, German, Italian & Dutch
- Menu: Yes 
- Extras: No
- Cover: No
- Label: No
- Genre : Drama | Fantasy

Lots of thanks go to TheNZBBrains & ViSioNz for making this disk possible. Thanks!

IMDb: http://www.imdb.com/title/tt0460644/

~~~~~~~~~~~~~~~~~~~~~~~~~~~~~~~~~~~~~~~~~~~~~~~~~~~~~~~~~
VIDEO AND AUDIO INFORMATION
¯¯¯¯¯¯¯¯¯¯¯¯¯¯¯¯¯¯¯¯¯¯¯¯¯¯¯¯¯¯
Video
ID                               : 224 (0xE0)
Format                           : MPEG Video
Format version                   : Version 2
Format profile                   : Main@Main
Format settings, BVOP            : Yes
Format settings, Matrix          : Default
Format settings, GOP             : M=3, N=12
Duration                         : 30mn 54s
Bit rate mode                    : Variable
Bit rate                         : 3 578 Kbps
Nominal bit rate                 : 9 800 Kbps
Width                            : 720 pixels
Height                           : 576 pixels
Display aspect ratio             : 16:9
Frame rate                       : 25.000 fps
Standard                         : Component
Color space                      : YUV
Chroma subsampling               : 4:2:0
Bit depth                        : 8 bits
Scan type                        : Progressive
Scan order                       : Top Field First
Bits/(Pixel*Frame)               : 0.345
Stream size                      : 791 MiB (77%)

Audio #1
ID                               : 128 (0x80)
Format                           : AC-3
Format/Info                      : Audio Coding 3
Mode extension                   : CM (complete main)
Duration                         : 30mn 55s
Bit rate mode                    : Constant
Bit rate                         : 384 Kbps
Channel(s)                       : 6 channels
Channel positions                : Front: L C R, Side: L R, LFE
Sampling rate                    : 48.0 KHz
Bit depth                        : 16 bits
Video delay                      : -600ms
Stream size                      : 84.9 MiB (8%)

Audio #2
ID                               : 129 (0x81)
Format                           : AC-3
Format/Info                      : Audio Coding 3
Mode extension                   : CM (complete main)
Duration                         : 30mn 55s
Bit rate mode                    : Constant
Bit rate                         : 384 Kbps
Channel(s)                       : 6 channels
Channel positions                : Front: L C R, Side: L R, LFE
Sampling rate                    : 48.0 KHz
Bit depth                        : 16 bits
Video delay                      : -600ms
Stream size                      : 84.9 MiB (8%)

Audio #3
ID                               : 130 (0x82)
Format                           : AC-3
Format/Info                      : Audio Coding 3
Format profile                   : Dolby Digital
Mode extension                   : CM (complete main)
Duration                         : 30mn 55s
Bit rate mode                    : Constant
Bit rate                         : 192 Kbps
Channel(s)                       : 2 channels
Channel positions                : Front: L R
Sampling rate                    : 48.0 KHz
Bit depth                        : 16 bits
Video delay                      : -600ms
Stream size                      : 42.5 MiB (4%)

***********************************************
Brought to you by RHoek aka Ren Höek
***********************************************